<svg width="18" height="18" viewBox="0 0 18 18" fill="none" xmlns="http://www.w3.org/2000/svg">
<path d="M1.05 18H0V12.125L5 11.1L7.9 14C8.56667 13.6167 9.18767 13.2043 9.763 12.763C10.3383 12.3217 10.8673 11.859 11.35 11.375C11.8667 10.875 12.35 10.3333 12.8 9.75C13.25 9.16667 13.6583 8.55 14.025 7.9L11.175 5.025L12.1 0H18V1.05C18 3.15 17.55 5.21667 16.65 7.25C15.75 9.28333 14.4667 11.1333 12.8 12.8C11.1333 14.4667 9.27933 15.75 7.238 16.65C5.19667 17.55 3.134 18 1.05 18Z" fill="#D32027"/>
</svg>
